<svg xmlns="http://www.w3.org/2000/svg" viewBox="0 0 512 512">
  <defs>
    <linearGradient id="bg" x1="0%" y1="0%" x2="100%" y2="100%">
      <stop offset="0%" stop-color="#f7e6cf"/>
      <stop offset="100%" stop-color="#efb56a"/>
    </linearGradient>
    <linearGradient id="card" x1="0%" y1="0%" x2="100%" y2="100%">
      <stop offset="0%" stop-color="#ffffff" stop-opacity="0.96"/>
      <stop offset="100%" stop-color="#fff4e4" stop-opacity="0.92"/>
    </linearGradient>
  </defs>
  <rect width="512" height="512" rx="128" fill="url(#bg)"/>
  <rect x="92" y="86" width="328" height="340" rx="42" fill="url(#card)"/>
  <rect x="126" y="128" width="182" height="28" rx="14" fill="#da6b3e"/>
  <rect x="126" y="186" width="264" height="22" rx="11" fill="#245b66" fill-opacity="0.26"/>
  <rect x="126" y="224" width="240" height="18" rx="9" fill="#245b66" fill-opacity="0.18"/>
  <rect x="126" y="266" width="264" height="18" rx="9" fill="#245b66" fill-opacity="0.18"/>
  <rect x="126" y="308" width="220" height="18" rx="9" fill="#245b66" fill-opacity="0.18"/>
  <circle cx="364" cy="154" r="30" fill="#245b66"/>
  <path d="M364 136l8 16 18 3-13 13 3 18-16-8-16 8 3-18-13-13 18-3z" fill="#f7e6cf"/>
</svg>
